<svg width="7" height="12" viewBox="0 0 7 12" fill="#000" xmlns="http://www.w3.org/2000/svg">
<path d="M0.292786 5.29302L4.29279 1.29302C4.38503 1.19751 4.49538 1.12133 4.61738 1.06892C4.73939 1.01651 4.87061 0.988924 5.00339 0.98777C5.13616 0.986616 5.26784 1.01192 5.39074 1.0622C5.51364 1.11248 5.62529 1.18673 5.71918 1.28062C5.81307 1.37452 5.88733 1.48617 5.93761 1.60907C5.98789 1.73196 6.01319 1.86364 6.01204 1.99642C6.01088 2.1292 5.9833 2.26042 5.93089 2.38242C5.87848 2.50443 5.8023 2.61477 5.70679 2.70702L2.41379 6.00002L5.70679 9.29302C5.8023 9.38527 5.87848 9.49561 5.93089 9.61762C5.9833 9.73962 6.01088 9.87084 6.01204 10.0036C6.01319 10.1364 5.98789 10.2681 5.93761 10.391C5.88733 10.5139 5.81307 10.6255 5.71918 10.7194C5.62529 10.8133 5.51364 10.8876 5.39074 10.9378C5.26784 10.9881 5.13616 11.0134 5.00339 11.0123C4.87061 11.0111 4.73939 10.9835 4.61738 10.9311C4.49538 10.8787 4.38503 10.8025 4.29279 10.707L0.292786 6.70702C0.105315 6.51949 0 6.26518 0 6.00002C0 5.73486 0.105315 5.48055 0.292786 5.29302Z" fill="#000"/>
</svg>
